<mxfile host="app.diagrams.net" modified="2024-04-29T18:12:38.446Z" agent="Mozilla/5.0 (Windows NT 10.0; Win64; x64) AppleWebKit/537.36 (KHTML, like Gecko) Chrome/124.0.0.0 Safari/537.36" etag="7gcHlWubKit1xLZhwy5H" version="24.3.1" type="github">
  <diagram name="Page-1" id="U2262xEGuCTtghs0zXdD">
    <mxGraphModel dx="880" dy="434" grid="1" gridSize="10" guides="1" tooltips="1" connect="1" arrows="1" fold="1" page="1" pageScale="1" pageWidth="850" pageHeight="1100" math="0" shadow="0">
      <root>
        <mxCell id="0" />
        <mxCell id="1" parent="0" />
        <mxCell id="mo8p_vGkQaGcPF3m2B7q-1" value="Activity Diagram Pemesanan" style="swimlane;childLayout=stackLayout;resizeParent=1;resizeParentMax=0;startSize=20;html=1;" vertex="1" parent="1">
          <mxGeometry x="240.00000000000045" y="1" width="490" height="570" as="geometry" />
        </mxCell>
        <mxCell id="mo8p_vGkQaGcPF3m2B7q-2" value="Konsumen" style="swimlane;startSize=20;html=1;" vertex="1" parent="mo8p_vGkQaGcPF3m2B7q-1">
          <mxGeometry y="20" width="250" height="550" as="geometry" />
        </mxCell>
        <mxCell id="mo8p_vGkQaGcPF3m2B7q-7" value="Pilih produk" style="rounded=1;whiteSpace=wrap;html=1;arcSize=40;" vertex="1" parent="mo8p_vGkQaGcPF3m2B7q-2">
          <mxGeometry x="59.999999999999545" y="89" width="120" height="40" as="geometry" />
        </mxCell>
        <mxCell id="mo8p_vGkQaGcPF3m2B7q-10" style="edgeStyle=orthogonalEdgeStyle;rounded=0;orthogonalLoop=1;jettySize=auto;html=1;exitX=0.5;exitY=1;exitDx=0;exitDy=0;entryX=0.5;entryY=0;entryDx=0;entryDy=0;" edge="1" parent="mo8p_vGkQaGcPF3m2B7q-2" source="mo8p_vGkQaGcPF3m2B7q-5" target="mo8p_vGkQaGcPF3m2B7q-7">
          <mxGeometry relative="1" as="geometry" />
        </mxCell>
        <mxCell id="mo8p_vGkQaGcPF3m2B7q-5" value="" style="ellipse;html=1;shape=startState;fillColor=#000000;strokeColor=#ff0000;" vertex="1" parent="mo8p_vGkQaGcPF3m2B7q-2">
          <mxGeometry x="104.99999999999955" y="29" width="30" height="30" as="geometry" />
        </mxCell>
        <mxCell id="mo8p_vGkQaGcPF3m2B7q-12" value="pilih produk" style="rounded=1;whiteSpace=wrap;html=1;arcSize=40;" vertex="1" parent="mo8p_vGkQaGcPF3m2B7q-2">
          <mxGeometry x="64.99999999999955" y="179" width="120" height="40" as="geometry" />
        </mxCell>
        <mxCell id="mo8p_vGkQaGcPF3m2B7q-24" style="edgeStyle=orthogonalEdgeStyle;rounded=0;orthogonalLoop=1;jettySize=auto;html=1;exitX=0.5;exitY=0;exitDx=0;exitDy=0;entryX=0.5;entryY=1;entryDx=0;entryDy=0;" edge="1" parent="mo8p_vGkQaGcPF3m2B7q-2" source="mo8p_vGkQaGcPF3m2B7q-21" target="mo8p_vGkQaGcPF3m2B7q-12">
          <mxGeometry relative="1" as="geometry" />
        </mxCell>
        <mxCell id="mo8p_vGkQaGcPF3m2B7q-21" value="melakukan login" style="rounded=1;whiteSpace=wrap;html=1;arcSize=40;" vertex="1" parent="mo8p_vGkQaGcPF3m2B7q-2">
          <mxGeometry x="64.99999999999955" y="259" width="120" height="40" as="geometry" />
        </mxCell>
        <mxCell id="mo8p_vGkQaGcPF3m2B7q-28" value="Isi form pemesanan" style="rounded=1;whiteSpace=wrap;html=1;arcSize=40;" vertex="1" parent="mo8p_vGkQaGcPF3m2B7q-2">
          <mxGeometry x="64.99999999999955" y="349" width="120" height="40" as="geometry" />
        </mxCell>
        <mxCell id="mo8p_vGkQaGcPF3m2B7q-3" value="Sistem" style="swimlane;startSize=20;html=1;" vertex="1" parent="mo8p_vGkQaGcPF3m2B7q-1">
          <mxGeometry x="250" y="20" width="240" height="550" as="geometry" />
        </mxCell>
        <mxCell id="mo8p_vGkQaGcPF3m2B7q-9" value="menampikan list produk" style="rounded=1;whiteSpace=wrap;html=1;arcSize=40;" vertex="1" parent="mo8p_vGkQaGcPF3m2B7q-3">
          <mxGeometry x="59.999999999999545" y="89" width="120" height="40" as="geometry" />
        </mxCell>
        <mxCell id="mo8p_vGkQaGcPF3m2B7q-20" value="fale" style="edgeStyle=orthogonalEdgeStyle;rounded=0;orthogonalLoop=1;jettySize=auto;html=1;exitX=0.5;exitY=1;exitDx=0;exitDy=0;entryX=0.5;entryY=0;entryDx=0;entryDy=0;" edge="1" parent="mo8p_vGkQaGcPF3m2B7q-3" source="mo8p_vGkQaGcPF3m2B7q-13" target="mo8p_vGkQaGcPF3m2B7q-18">
          <mxGeometry relative="1" as="geometry" />
        </mxCell>
        <mxCell id="mo8p_vGkQaGcPF3m2B7q-27" style="edgeStyle=orthogonalEdgeStyle;rounded=0;orthogonalLoop=1;jettySize=auto;html=1;exitX=1;exitY=0.5;exitDx=0;exitDy=0;entryX=1;entryY=0.5;entryDx=0;entryDy=0;" edge="1" parent="mo8p_vGkQaGcPF3m2B7q-3" source="mo8p_vGkQaGcPF3m2B7q-13" target="mo8p_vGkQaGcPF3m2B7q-25">
          <mxGeometry relative="1" as="geometry" />
        </mxCell>
        <mxCell id="mo8p_vGkQaGcPF3m2B7q-13" value="cek login?" style="rhombus;whiteSpace=wrap;html=1;" vertex="1" parent="mo8p_vGkQaGcPF3m2B7q-3">
          <mxGeometry x="79.99999999999955" y="179" width="80" height="40" as="geometry" />
        </mxCell>
        <mxCell id="mo8p_vGkQaGcPF3m2B7q-18" value="menu login" style="rounded=1;whiteSpace=wrap;html=1;arcSize=40;" vertex="1" parent="mo8p_vGkQaGcPF3m2B7q-3">
          <mxGeometry x="59.999999999999545" y="259" width="120" height="40" as="geometry" />
        </mxCell>
        <mxCell id="mo8p_vGkQaGcPF3m2B7q-25" value="Form pemesanan" style="rounded=1;whiteSpace=wrap;html=1;arcSize=40;" vertex="1" parent="mo8p_vGkQaGcPF3m2B7q-3">
          <mxGeometry x="69.99999999999955" y="349" width="120" height="40" as="geometry" />
        </mxCell>
        <mxCell id="mo8p_vGkQaGcPF3m2B7q-43" style="edgeStyle=orthogonalEdgeStyle;rounded=0;orthogonalLoop=1;jettySize=auto;html=1;exitX=0.5;exitY=1;exitDx=0;exitDy=0;entryX=0.5;entryY=0;entryDx=0;entryDy=0;" edge="1" parent="mo8p_vGkQaGcPF3m2B7q-3" source="mo8p_vGkQaGcPF3m2B7q-39" target="mo8p_vGkQaGcPF3m2B7q-42">
          <mxGeometry relative="1" as="geometry" />
        </mxCell>
        <mxCell id="mo8p_vGkQaGcPF3m2B7q-39" value="Pesanan di simpan" style="rounded=1;whiteSpace=wrap;html=1;arcSize=40;" vertex="1" parent="mo8p_vGkQaGcPF3m2B7q-3">
          <mxGeometry x="59.999999999999545" y="429" width="120" height="40" as="geometry" />
        </mxCell>
        <mxCell id="mo8p_vGkQaGcPF3m2B7q-42" value="" style="ellipse;html=1;shape=endState;fillColor=#000000;strokeColor=#ff0000;" vertex="1" parent="mo8p_vGkQaGcPF3m2B7q-3">
          <mxGeometry x="104.99999999999955" y="499" width="30" height="30" as="geometry" />
        </mxCell>
        <mxCell id="mo8p_vGkQaGcPF3m2B7q-11" style="edgeStyle=orthogonalEdgeStyle;rounded=0;orthogonalLoop=1;jettySize=auto;html=1;exitX=1;exitY=0.5;exitDx=0;exitDy=0;entryX=0;entryY=0.5;entryDx=0;entryDy=0;" edge="1" parent="mo8p_vGkQaGcPF3m2B7q-1" source="mo8p_vGkQaGcPF3m2B7q-7" target="mo8p_vGkQaGcPF3m2B7q-9">
          <mxGeometry relative="1" as="geometry" />
        </mxCell>
        <mxCell id="mo8p_vGkQaGcPF3m2B7q-16" style="edgeStyle=orthogonalEdgeStyle;rounded=0;orthogonalLoop=1;jettySize=auto;html=1;exitX=1;exitY=0.5;exitDx=0;exitDy=0;" edge="1" parent="mo8p_vGkQaGcPF3m2B7q-1" source="mo8p_vGkQaGcPF3m2B7q-12" target="mo8p_vGkQaGcPF3m2B7q-13">
          <mxGeometry relative="1" as="geometry" />
        </mxCell>
        <mxCell id="mo8p_vGkQaGcPF3m2B7q-17" style="edgeStyle=orthogonalEdgeStyle;rounded=0;orthogonalLoop=1;jettySize=auto;html=1;exitX=0.5;exitY=1;exitDx=0;exitDy=0;" edge="1" parent="mo8p_vGkQaGcPF3m2B7q-1" source="mo8p_vGkQaGcPF3m2B7q-9" target="mo8p_vGkQaGcPF3m2B7q-12">
          <mxGeometry relative="1" as="geometry" />
        </mxCell>
        <mxCell id="mo8p_vGkQaGcPF3m2B7q-23" style="edgeStyle=orthogonalEdgeStyle;rounded=0;orthogonalLoop=1;jettySize=auto;html=1;exitX=0;exitY=0.5;exitDx=0;exitDy=0;entryX=1;entryY=0.5;entryDx=0;entryDy=0;" edge="1" parent="mo8p_vGkQaGcPF3m2B7q-1" source="mo8p_vGkQaGcPF3m2B7q-18" target="mo8p_vGkQaGcPF3m2B7q-21">
          <mxGeometry relative="1" as="geometry" />
        </mxCell>
        <mxCell id="mo8p_vGkQaGcPF3m2B7q-30" style="edgeStyle=orthogonalEdgeStyle;rounded=0;orthogonalLoop=1;jettySize=auto;html=1;exitX=0;exitY=0.5;exitDx=0;exitDy=0;entryX=1;entryY=0.5;entryDx=0;entryDy=0;" edge="1" parent="mo8p_vGkQaGcPF3m2B7q-1" source="mo8p_vGkQaGcPF3m2B7q-25" target="mo8p_vGkQaGcPF3m2B7q-28">
          <mxGeometry relative="1" as="geometry" />
        </mxCell>
        <mxCell id="mo8p_vGkQaGcPF3m2B7q-41" style="edgeStyle=orthogonalEdgeStyle;rounded=0;orthogonalLoop=1;jettySize=auto;html=1;exitX=0.5;exitY=1;exitDx=0;exitDy=0;entryX=0;entryY=0.5;entryDx=0;entryDy=0;" edge="1" parent="mo8p_vGkQaGcPF3m2B7q-1" source="mo8p_vGkQaGcPF3m2B7q-28" target="mo8p_vGkQaGcPF3m2B7q-39">
          <mxGeometry relative="1" as="geometry" />
        </mxCell>
      </root>
    </mxGraphModel>
  </diagram>
</mxfile>
